<svg width="100" height="100" viewBox="0 0 100 100" fill="none" xmlns="http://www.w3.org/2000/svg">
<path d="M83.1191 29.23L79.9492 28.0571C76.0547 26.6167 72.9946 23.5562 71.5532 19.6616L70.3804 16.4917C70.0171 15.5103 69.082 14.8589 68.0356 14.8589C66.9897 14.8589 66.0542 15.5103 65.6909 16.4907L64.5176 19.6616C63.0767 23.5562 60.0166 26.6167 56.1221 28.0571L52.9521 29.23C51.9712 29.5933 51.3198 30.5288 51.3198 31.5747C51.3198 32.6206 51.9712 33.5562 52.9521 33.9194L56.1216 35.0923C60.0166 36.5337 63.0771 39.5942 64.5176 43.4888L65.6909 46.6587C66.0542 47.6392 66.9897 48.2905 68.0356 48.2905C69.082 48.2905 70.0171 47.6392 70.3804 46.6577L71.5532 43.4888C72.9941 39.5942 76.0547 36.5337 79.9492 35.0923L83.1191 33.9194C84.1001 33.5562 84.7515 32.6206 84.7515 31.5747C84.7515 30.5288 84.1001 29.5933 83.1191 29.23ZM68.0356 39.1831C66.2769 35.9731 63.6387 33.3345 60.4277 31.5747C63.6382 29.8159 66.2769 27.1772 68.0356 23.9663C69.7944 27.1772 72.4331 29.8159 75.6436 31.5747C72.4331 33.3345 69.7944 35.9722 68.0356 39.1831ZM76.7173 54.4067V69.2319C76.7173 78.0044 69.5801 85.1411 60.8076 85.1411H31.1577C22.3853 85.1411 15.248 78.0044 15.248 69.2319V39.5825C15.248 30.8101 22.3853 23.6724 31.1577 23.6724H45.9829C47.3638 23.6724 48.4829 24.7915 48.4829 26.1724C48.4829 27.5532 47.3638 28.6724 45.9829 28.6724H31.1577C25.1421 28.6724 20.248 33.5669 20.248 39.5825V69.2319C20.248 75.2476 25.1421 80.1411 31.1577 80.1411H60.8076C66.8232 80.1411 71.7173 75.2476 71.7173 69.2319V54.4067C71.7173 53.0259 72.8364 51.9067 74.2173 51.9067C75.5981 51.9067 76.7173 53.0259 76.7173 54.4067ZM32.4062 40.5103C33.7871 40.5103 34.9062 41.6294 34.9062 43.0103V64.9976C34.9062 66.3784 33.7871 67.4976 32.4062 67.4976C31.0254 67.4976 29.9062 66.3784 29.9062 64.9976V43.0103C29.9062 41.6294 31.0254 40.5103 32.4062 40.5103ZM41.457 48.5103C42.8379 48.5103 43.957 49.6294 43.957 51.0103V56.9976C43.957 58.3784 42.8379 59.4976 41.457 59.4976C40.0762 59.4976 38.957 58.3784 38.957 56.9976V51.0103C38.957 49.6294 40.0762 48.5103 41.457 48.5103ZM48.0083 45.0103C48.0083 43.6294 49.1274 42.5103 50.5083 42.5103C51.8892 42.5103 53.0083 43.6294 53.0083 45.0103V62.9976C53.0083 64.3784 51.8892 65.4976 50.5083 65.4976C49.1274 65.4976 48.0083 64.3784 48.0083 62.9976V45.0103ZM59.5596 60.4976C58.1787 60.4976 57.0596 59.3784 57.0596 57.9976V50.0103C57.0596 48.6294 58.1787 47.5103 59.5596 47.5103C60.9404 47.5103 62.0596 48.6294 62.0596 50.0103V57.9976C62.0596 59.3784 60.9404 60.4976 59.5596 60.4976Z" fill="#FFBF66"/>
</svg>
