<svg width="40" height="40" viewBox="0 0 40 40" fill="none" xmlns="http://www.w3.org/2000/svg">
<path d="M4.6198 35.7154C6.93646 37.5443 9.73035 38.1598 10.8459 38.0282C11.4865 37.9526 11.8276 37.5632 12.1787 37.1176C13.2376 36.3898 13.1648 36.487 13.247 36.3709C13.5915 36.2704 13.8726 36.0543 14.0376 35.7643C14.9292 35.8493 17.4804 35.7398 19.3292 35.0587C23.4392 33.5443 25.3092 28.8432 22.9859 28.2626C23.7026 27.1654 24.0809 25.7659 22.8842 25.2204C23.1037 24.3998 22.6565 23.7004 22.0248 23.4504C22.327 22.5387 21.8304 21.7115 20.7109 21.7265C20.622 21.4509 20.3637 21.1698 20.1315 21.1048C20.7265 21.0659 20.6765 19.927 20.182 19.5382C23.9348 19.632 27.0915 21.3782 27.4031 21.6932C27.7726 22.0682 28.162 22.4154 28.6698 22.232C29.9642 21.7637 30.1976 18.3876 30.0615 16.5298C29.6281 10.6137 27.1281 5.01315 25.727 3.03926C24.5798 1.4226 23.3015 1.84038 22.8342 2.81982C19.6226 6.41926 16.0154 9.17204 12.1059 10.9998C11.1381 11.4482 10.1637 11.8698 9.39591 12.5943C7.89813 14.0087 7.16146 17.0154 8.58702 19.1665C9.5498 20.6193 11.3265 21.4448 13.0576 21.382C12.6992 21.8093 12.4198 22.3543 12.3915 22.8059C12.2654 24.8126 12.1392 24.5959 11.6859 26.267C11.3993 27.3226 11.2026 28.4005 11.0981 29.4893C10.9895 29.4184 10.8671 29.3713 10.739 29.3511C10.6109 29.3309 10.48 29.338 10.3548 29.372C10.0626 29.447 9.80869 29.6459 9.63813 29.9243C9.29202 30.1148 6.84091 31.8509 6.51869 32.0798C5.69646 32.6643 4.92091 33.2165 3.72313 34.0232C3.1798 34.3893 4.15146 35.3454 4.6198 35.7154ZM25.047 3.52093C26.5098 5.57926 28.8131 10.8932 29.2304 16.5904C29.3059 17.6232 29.2137 21.1237 28.4026 21.4459C27.4487 21.307 25.5442 17.5643 25.1387 16.6865C25.6422 16.0865 26.2353 15.5677 26.897 15.1487C26.9942 15.1893 27.0942 15.2104 27.1965 15.2104C28.3887 15.2104 28.2481 13.0254 28.0009 11.857C27.6787 10.3332 26.9515 8.88371 26.0576 9.06871C25.8326 9.11649 25.6598 9.25482 25.532 9.45871C24.7353 9.55573 23.9298 9.55573 23.1331 9.45871C22.9365 7.48482 23.1165 4.28093 23.5587 3.22704C23.8287 2.65704 24.3231 2.50038 25.047 3.52149V3.52093ZM25.4098 12.4054C25.5848 13.2326 25.8792 14.037 26.2542 14.5709C25.7115 14.9376 25.2154 15.372 24.772 15.852C24.0176 14.0398 23.4998 12.1687 23.2365 10.3054C23.992 10.3832 24.5565 10.3859 25.2676 10.3243C25.1942 10.9298 25.2565 11.6782 25.4098 12.4054ZM22.4254 4.48204C21.6465 10.1626 23.1448 15.5354 26.0198 20.0304C23.5048 18.9043 20.717 18.4743 17.8476 18.8082C17.4381 18.8554 17.2704 19.5126 17.7104 19.6837C18.227 19.8848 18.6954 20.4415 18.777 20.9515C18.8365 21.3237 18.7626 21.5998 18.2154 21.9432C17.8437 22.1754 18.0404 22.7359 18.4748 22.7359C18.5713 22.7359 18.6648 22.7023 18.7392 22.6409L18.7498 22.632C18.8592 22.637 18.9092 22.6732 18.9831 22.7387C18.9276 22.7859 16.3515 24.8309 15.5726 25.322C15.5736 25.318 15.5746 25.3139 15.5754 25.3098C15.8287 24.1348 15.9209 22.7182 15.2642 21.7132C15.1148 21.0214 15.0028 20.322 14.9287 19.6182C14.9509 19.2626 14.5892 19.0826 14.322 19.2265C14.2487 19.2659 14.1715 19.2965 14.0954 19.3309C12.2292 17.402 11.5092 14.4187 12.3081 11.8554C12.3115 11.8448 12.3087 11.8343 12.3115 11.8237C12.4926 11.7165 17.267 9.84593 22.4254 4.48204ZM9.96813 13.2004C10.3637 12.8276 10.8337 12.5482 11.337 12.292C10.7926 14.8365 11.5054 17.6387 13.2115 19.6043C12.4187 19.7448 11.5831 19.6409 10.8598 19.2776C8.54313 18.1154 8.08202 14.9815 9.96813 13.2004ZM10.5626 30.1793C10.6626 30.1526 10.8337 30.2882 11.0348 30.7115C11.0348 30.8143 11.032 30.9193 11.0342 31.0193C11.0498 31.7848 12.2165 31.3648 11.8787 30.5626C11.9031 29.3254 12.1131 27.8737 12.4898 26.4859C12.9287 24.8693 13.0909 24.9726 13.2237 22.8582C13.2559 22.3482 13.877 21.6193 14.1404 21.5237C14.2476 21.6909 14.3431 21.8337 14.4276 21.9598C15.5598 23.652 14.4609 26.0209 14.4498 26.0765C14.4346 26.15 14.4394 26.2262 14.4638 26.2971C14.4882 26.3681 14.5312 26.4312 14.5884 26.4798C14.6455 26.5285 14.7147 26.5608 14.7886 26.5735C14.8626 26.5862 14.9386 26.5788 15.0087 26.552C16.7881 25.8509 19.8065 22.902 20.6915 22.5593C21.0248 22.4837 21.4054 22.7048 21.2326 23.197C21.0581 23.6965 19.8704 24.6204 19.4509 24.9415C19.3679 25.0102 19.3148 25.1083 19.3026 25.2153C19.2904 25.3223 19.3201 25.4299 19.3855 25.5154C19.4509 25.601 19.5469 25.6579 19.6533 25.6743C19.7598 25.6906 19.8684 25.6652 19.9565 25.6032C20.1187 25.4793 20.5354 25.3148 21.5454 24.1876C21.8759 24.2348 22.0698 24.4932 22.0981 24.6709C22.1981 25.2987 21.8492 25.3282 20.1048 26.8376C19.8115 27.0904 19.9948 27.5693 20.3776 27.5693C20.5887 27.5693 22.3776 26.0209 22.4498 25.9515C23.3648 26.1076 22.3387 27.8148 22.1576 27.9715C21.8504 28.2359 21.5792 28.5632 21.2331 28.812C21.1887 28.844 21.151 28.8844 21.1222 28.9309C21.0934 28.9774 21.074 29.0292 21.0652 29.0832C21.0563 29.1372 21.0582 29.1924 21.0708 29.2457C21.0833 29.299 21.1062 29.3493 21.1381 29.3937C21.1701 29.4381 21.2105 29.4758 21.257 29.5047C21.3035 29.5335 21.3553 29.5529 21.4093 29.5617C21.4633 29.5705 21.5185 29.5686 21.5718 29.5561C21.6251 29.5436 21.6754 29.5207 21.7198 29.4887C21.9042 29.3554 22.0615 29.2126 22.2081 29.072C22.5287 29.0065 23.0609 29.0448 23.0637 29.2854C23.0842 30.8326 20.3098 32.7382 18.8859 33.337C16.7659 34.2298 14.9637 34.5032 13.3781 34.1732C12.8615 34.0665 12.6326 34.8454 13.2448 35.0193C13.4809 35.0854 13.3759 35.5504 12.9081 35.6037C12.1759 35.6815 11.1498 34.8282 10.6748 33.6476C10.217 32.512 10.1626 30.8565 10.2859 30.4948C10.3404 30.3348 10.4515 30.2076 10.5626 30.1793ZM30.1848 8.70871L34.4598 5.30038C34.5462 5.23142 34.6017 5.13096 34.614 5.02109C34.6264 4.91123 34.5946 4.80096 34.5256 4.71454C34.4567 4.62813 34.3562 4.57264 34.2463 4.56029C34.1365 4.54795 34.0262 4.57975 33.9398 4.64871L29.6648 8.05704C29.5784 8.126 29.5229 8.22646 29.5106 8.33632C29.4982 8.44619 29.53 8.55646 29.599 8.64288C29.6679 8.72929 29.7684 8.78478 29.8782 8.79712C29.9881 8.80947 30.0984 8.77767 30.1848 8.70871ZM30.9759 11.7643C31.0058 11.8706 31.0768 11.9608 31.1731 12.0149C31.2695 12.0689 31.3834 12.0825 31.4898 12.0526L35.4787 10.9287C35.582 10.8961 35.6685 10.8246 35.72 10.7293C35.7715 10.634 35.7838 10.5225 35.7544 10.4182C35.725 10.314 35.6562 10.2253 35.5625 10.1709C35.4688 10.1166 35.3577 10.1008 35.2526 10.127L31.2637 11.2504C31.1574 11.2804 31.0674 11.3514 31.0134 11.4478C30.9595 11.5441 30.946 11.658 30.9759 11.7643ZM32.1859 15.1865C32.1308 15.1909 32.0772 15.2063 32.0281 15.2316C31.9791 15.257 31.9355 15.2919 31.9 15.3342C31.8646 15.3766 31.8379 15.4255 31.8215 15.4783C31.8051 15.5311 31.7994 15.5865 31.8047 15.6415C31.8099 15.6965 31.8261 15.7499 31.8522 15.7986C31.8783 15.8473 31.9138 15.8903 31.9566 15.9251C31.9995 15.96 32.0489 15.986 32.1019 16.0015C32.1549 16.0171 32.2104 16.022 32.2654 16.0159C33.4917 15.8983 34.729 15.9711 35.9331 16.2315C35.9875 16.2456 36.0442 16.2486 36.0997 16.2403C36.1553 16.2319 36.2086 16.2124 36.2564 16.183C36.3043 16.1535 36.3456 16.1147 36.3781 16.0688C36.4105 16.0229 36.4334 15.971 36.4452 15.9161C36.4571 15.8611 36.4577 15.8044 36.447 15.7492C36.4364 15.6941 36.4147 15.6416 36.3832 15.5951C36.3518 15.5485 36.3113 15.5088 36.2641 15.4783C36.2169 15.4478 36.1641 15.4271 36.1087 15.4176C34.8208 15.1389 33.4976 15.0609 32.1859 15.1865Z" fill="#FFBF66"/>
</svg>
