<svg width="40" height="40" viewBox="0 0 40 40" fill="none" xmlns="http://www.w3.org/2000/svg">
<path d="M31.25 12.1875C30.2161 12.1875 29.375 13.0286 29.375 14.0625C29.375 15.0964 30.2161 15.9375 31.25 15.9375C32.2839 15.9375 33.125 15.0964 33.125 14.0625C33.125 13.0286 32.2839 12.1875 31.25 12.1875ZM31.25 14.6875C30.9051 14.6875 30.625 14.4074 30.625 14.0625C30.625 13.7176 30.9051 13.4375 31.25 13.4375C31.5948 13.4375 31.875 13.7176 31.875 14.0625C31.875 14.4074 31.5948 14.6875 31.25 14.6875ZM26.875 10.3125C26.875 9.27856 26.0339 8.4375 25 8.4375C23.9661 8.4375 23.125 9.27856 23.125 10.3125C23.125 11.3464 23.9661 12.1875 25 12.1875C26.0339 12.1875 26.875 11.3464 26.875 10.3125ZM24.375 10.3125C24.375 9.96765 24.6551 9.6875 25 9.6875C25.3449 9.6875 25.625 9.96765 25.625 10.3125C25.625 10.6574 25.3449 10.9375 25 10.9375C24.6551 10.9375 24.375 10.6574 24.375 10.3125Z" fill="#FFBF66"/>
<path d="M33.125 5.9375H23.125C21.7462 5.9375 20.625 7.05872 20.625 8.4375V14.0625H6.25C5.21606 14.0625 4.375 14.9036 4.375 15.9375V32.1875C4.375 33.2214 5.21606 34.0625 6.25 34.0625H31.25C32.2839 34.0625 33.125 33.2214 33.125 32.1875V18.4375C34.5038 18.4375 35.625 17.3163 35.625 15.9375V8.4375C35.625 7.05872 34.5038 5.9375 33.125 5.9375ZM31.875 32.1875C31.875 32.5324 31.5949 32.8125 31.25 32.8125H6.25C5.90515 32.8125 5.625 32.5324 5.625 32.1875V15.9375C5.625 15.5927 5.90515 15.3125 6.25 15.3125H20.625V15.9375C20.625 17.3163 21.7462 18.4375 23.125 18.4375H31.875V32.1875ZM34.375 15.9375C34.375 16.6266 33.8141 17.1875 33.125 17.1875H23.125C22.4359 17.1875 21.875 16.6266 21.875 15.9375V8.4375C21.875 7.74841 22.4359 7.1875 23.125 7.1875H33.125C33.8141 7.1875 34.375 7.74841 34.375 8.4375V15.9375Z" fill="#FFBF66"/>
<path d="M31.0669 9.2456C30.8228 9.00147 30.4272 9.00147 30.1831 9.2456L24.5581 14.8706C24.314 15.1147 24.314 15.5102 24.5581 15.7544C24.8009 15.9973 25.1991 15.9971 25.4419 15.7544L31.0669 10.1294C31.311 9.88526 31.311 9.48974 31.0669 9.2456ZM8.75 26.5625H15C15.3455 26.5625 15.625 26.283 15.625 25.9375V24.0625C15.625 22.6502 14.8397 21.4188 13.6834 20.7794C14.1093 20.3309 14.375 19.7285 14.375 19.0625C14.375 17.6837 13.2538 16.5625 11.875 16.5625C10.4962 16.5625 9.375 17.6837 9.375 19.0625C9.375 19.7285 9.64066 20.3309 10.0666 20.7794C8.91026 21.4188 8.125 22.6502 8.125 24.0625V25.9375C8.125 26.283 8.40454 26.5625 8.75 26.5625ZM10.625 19.0625C10.625 18.3734 11.1859 17.8125 11.875 17.8125C12.5641 17.8125 13.125 18.3734 13.125 19.0625C13.125 19.7516 12.5641 20.3125 11.875 20.3125C11.1859 20.3125 10.625 19.7516 10.625 19.0625ZM9.375 24.0625C9.375 22.6837 10.4962 21.5625 11.875 21.5625C13.2538 21.5625 14.375 22.6837 14.375 24.0625V25.3125H9.375V24.0625ZM15 27.8125H8.75C7.71606 27.8125 6.875 28.6536 6.875 29.6875C6.875 30.7214 7.71606 31.5625 8.75 31.5625H15C16.0339 31.5625 16.875 30.7214 16.875 29.6875C16.875 28.6536 16.0339 27.8125 15 27.8125ZM15 30.3125H8.75C8.40515 30.3125 8.125 30.0323 8.125 29.6875C8.125 29.3426 8.40515 29.0625 8.75 29.0625H15C15.3448 29.0625 15.625 29.3426 15.625 29.6875C15.625 30.0323 15.3448 30.3125 15 30.3125ZM16.875 20.9375C16.875 21.283 17.1545 21.5625 17.5 21.5625H30C30.3455 21.5625 30.625 21.283 30.625 20.9375C30.625 20.592 30.3455 20.3125 30 20.3125H17.5C17.1545 20.3125 16.875 20.592 16.875 20.9375ZM30 23.4375H17.5C17.1545 23.4375 16.875 23.717 16.875 24.0625C16.875 24.408 17.1545 24.6875 17.5 24.6875H30C30.3455 24.6875 30.625 24.408 30.625 24.0625C30.625 23.717 30.3455 23.4375 30 23.4375ZM30 26.5625H18.75C18.4045 26.5625 18.125 26.842 18.125 27.1875C18.125 27.533 18.4045 27.8125 18.75 27.8125H30C30.3455 27.8125 30.625 27.533 30.625 27.1875C30.625 26.842 30.3455 26.5625 30 26.5625ZM30 29.6875H18.75C18.4045 29.6875 18.125 29.967 18.125 30.3125C18.125 30.658 18.4045 30.9375 18.75 30.9375H30C30.3455 30.9375 30.625 30.658 30.625 30.3125C30.625 29.967 30.3455 29.6875 30 29.6875Z" fill="#FFBF66"/>
</svg>
