<svg width="40" height="40" viewBox="0 0 40 40" fill="none" xmlns="http://www.w3.org/2000/svg">
<path d="M22.324 6.12786L28.6058 15.6174C28.7605 15.8511 28.8076 16.1399 28.7351 16.4105L23.0485 37.6329C22.9087 38.1547 22.3723 38.4644 21.8504 38.3246L5.3835 33.9124C4.86163 33.7725 4.55194 33.2361 4.69178 32.7143L10.3782 11.4919C10.4507 11.2213 10.6358 10.9946 10.8866 10.8696L21.0716 5.79223C21.514 5.57192 22.0512 5.71583 22.324 6.12786Z" fill="#FFD9A4"/>
<path d="M22.1031 38.6707C21.9929 38.6707 21.8809 38.6565 21.7694 38.6267L5.30263 34.2143C4.61529 34.0301 4.2056 33.321 4.38982 32.6335L10.0762 11.4112C10.172 11.0542 10.4165 10.7549 10.7472 10.5901L20.9322 5.51276C21.5148 5.22245 22.2251 5.4126 22.5845 5.95541L28.8662 15.4449C29.0703 15.7532 29.1325 16.1348 29.0367 16.4917L23.3501 37.7139C23.1959 38.2899 22.6729 38.6707 22.1031 38.6707ZM21.5072 6.00229C21.407 6.00229 21.3058 6.02495 21.2109 6.07213L11.0261 11.1493C10.8554 11.2343 10.7293 11.3887 10.6798 11.5729L4.99341 32.7953C4.89857 33.1499 5.10966 33.5156 5.46435 33.6107L21.9312 38.0231C22.1033 38.069 22.2823 38.0456 22.4364 37.9565C22.5903 37.8676 22.7004 37.724 22.7465 37.5523L28.4331 16.3299C28.4823 16.1459 28.4503 15.949 28.3451 15.7901L22.0634 6.30057C21.9365 6.1087 21.7245 6.00229 21.5072 6.00229Z" fill="#215F66"/>
<path d="M24.5272 5.30166L15.338 13.4306C15.1281 13.6162 15.0078 13.8831 15.0078 14.1632V37.7718C15.0078 38.3121 15.4458 38.7501 15.9861 38.7501H34.3644C34.9047 38.7501 35.3427 38.3121 35.3427 37.7718V14.1634C35.3427 13.8831 35.2225 13.6163 35.0125 13.4307L25.8234 5.30166C25.4533 4.97432 24.8972 4.97432 24.5272 5.30166Z" fill="#FCF0E0"/>
<path d="M25.1741 10.8693C25.992 10.8693 26.6549 10.2063 26.6549 9.3885C26.6549 8.57068 25.992 7.90771 25.1741 7.90771C24.3563 7.90771 23.6934 8.57068 23.6934 9.3885C23.6934 10.2063 24.3563 10.8693 25.1741 10.8693Z" fill="#C69046"/>
<path d="M22.919 24.7229C23.5001 24.0795 23.7948 23.0992 23.7948 21.8093C23.7948 21.1698 23.7265 20.6031 23.5918 20.1248C23.454 19.6359 23.2396 19.2136 22.9546 18.8693C22.6654 18.5204 22.3079 18.2576 21.8918 18.0884C21.4837 17.9223 21.0065 17.8382 20.4738 17.8382C19.7323 17.8382 19.1098 17.9978 18.6237 18.3126C18.1316 18.6312 17.772 19.102 17.5548 19.7118C17.3462 20.2973 17.2402 21.0325 17.2402 21.8968C17.2402 22.7115 17.3785 23.4148 17.6512 23.9873C17.9302 24.5734 18.3274 25.0118 18.8316 25.2904C19.327 25.5642 19.8924 25.7031 20.5126 25.7031C21.5221 25.7029 22.3316 25.3732 22.919 24.7229ZM21.2615 19.9629C21.4271 20.3148 21.511 20.9034 21.511 21.7121C21.511 22.5565 21.4307 23.1757 21.2721 23.5528C21.1379 23.8721 20.8965 24.0207 20.5127 24.0207C20.2588 24.0207 20.069 23.9532 19.9326 23.8142C19.7854 23.6645 19.681 23.4293 19.6221 23.1151C19.5571 22.7689 19.5243 22.3098 19.5243 21.7509C19.5243 21.2115 19.5571 20.764 19.6221 20.4211C19.6807 20.1107 19.7863 19.8775 19.936 19.7279C20.076 19.5879 20.2648 19.52 20.5129 19.52C20.8813 19.5201 21.1193 19.6609 21.2615 19.9629ZM30.3154 18.5771C30.3154 18.3236 30.2304 18.1145 30.0624 17.9554C29.898 17.8003 29.6855 17.7217 29.4309 17.7217C29.1615 17.7217 28.9476 17.8084 28.7949 17.9796C28.6766 18.1123 28.5457 18.3003 28.397 18.5509L20.2676 31.6862C20.1104 31.9217 20.034 32.1262 20.034 32.3112C20.034 32.5651 20.1432 32.7823 20.3498 32.9393C20.5398 33.0839 20.7376 33.157 20.9382 33.157C21.2851 33.157 21.5884 32.9382 21.8363 32.5123L29.9209 19.4781C30.2705 18.9198 30.3154 18.7034 30.3154 18.5771ZM32.906 27.1379C32.7677 26.644 32.5507 26.2234 32.2607 25.8879C31.9691 25.5507 31.6129 25.2942 31.2018 25.1256C30.7966 24.9593 30.321 24.8751 29.788 24.8751C28.6674 24.8751 27.8321 25.2281 27.3055 25.9242C26.7943 26.6001 26.5349 27.6062 26.5349 28.9143C26.5349 29.7361 26.6751 30.44 26.9518 31.0068C27.234 31.5853 27.6321 32.0212 28.1351 32.3025C28.6307 32.5798 29.1999 32.7206 29.8268 32.7206C30.8362 32.7206 31.6459 32.3909 32.233 31.7407C32.8141 31.0975 33.1088 30.1171 33.1088 28.8271C33.1088 28.1875 33.0407 27.6192 32.906 27.1379ZM28.809 28.7686C28.809 28.2243 28.8448 27.7786 28.9155 27.4436C28.9799 27.1379 29.0876 26.9079 29.2354 26.7601C29.3721 26.6234 29.5655 26.557 29.8268 26.557C30.1954 26.557 30.4334 26.6978 30.5755 26.9998C30.7412 27.3518 30.8251 27.9339 30.8251 28.7296C30.8251 29.5675 30.7432 30.1848 30.5816 30.5646C30.4443 30.8878 30.2043 31.0382 29.8266 31.0382C29.4523 31.0382 29.2099 30.8904 29.0641 30.5729C28.8948 30.2046 28.809 29.5976 28.809 28.7686Z" fill="#C69046"/>
<path d="M34.3645 39.0625H15.9863C15.2744 39.0625 14.6953 38.4835 14.6953 37.7718V14.1633C14.6953 13.7938 14.8542 13.4414 15.1309 13.1964L24.3202 5.0677C24.8073 4.63645 25.543 4.63613 26.0305 5.0677L35.2198 13.1964C35.4966 13.4414 35.6553 13.7938 35.6553 14.1633V37.7719C35.6552 38.4835 35.0761 39.0625 34.3645 39.0625ZM25.1752 5.36879C25.0175 5.36879 24.8598 5.42441 24.7342 5.53566L15.545 13.6646C15.4022 13.791 15.3203 13.9727 15.3203 14.1632V37.7718C15.3203 38.1389 15.6191 38.4375 15.9863 38.4375H34.3645C34.7317 38.4375 35.0303 38.1389 35.0303 37.7718V14.1633C35.0303 13.9727 34.9484 13.791 34.8056 13.6646L25.6162 5.53582C25.4906 5.42457 25.333 5.36879 25.1752 5.36879Z" fill="#215F66"/>
<path d="M25.1743 11.1819C24.1854 11.1819 23.3809 10.3776 23.3809 9.38865C23.3809 8.39975 24.1852 7.59521 25.1743 7.59521C26.163 7.59521 26.9676 8.39975 26.9676 9.38865C26.9676 10.3776 26.163 11.1819 25.1743 11.1819ZM25.1743 8.22021C24.5301 8.22021 24.0059 8.74428 24.0059 9.38865C24.0059 10.033 24.5299 10.5569 25.1743 10.5569C25.8187 10.5569 26.3426 10.0329 26.3426 9.38865C26.3426 8.74443 25.8185 8.22021 25.1743 8.22021Z" fill="#215F66"/>
<path d="M25.1738 9.38828C24.6129 9.38828 24.1582 8.93359 24.1582 8.37266V2.26562C24.1582 1.70469 24.6129 1.25 25.1738 1.25C25.7348 1.25 26.1895 1.70469 26.1895 2.26562V8.37266C26.1895 8.93359 25.7348 9.38828 25.1738 9.38828Z" fill="#FFBF66"/>
<path d="M25.1738 9.70078C24.4415 9.70078 23.8457 9.105 23.8457 8.37266V2.26562C23.8457 1.53328 24.4415 0.9375 25.1738 0.9375C25.9062 0.9375 26.502 1.53328 26.502 2.26562V8.37266C26.502 9.105 25.9062 9.70078 25.1738 9.70078ZM25.1738 1.5625C24.7862 1.5625 24.4707 1.87797 24.4707 2.26562V8.37266C24.4707 8.76031 24.7862 9.07578 25.1738 9.07578C25.5615 9.07578 25.877 8.76031 25.877 8.37266V2.26562C25.877 1.87797 25.5616 1.5625 25.1738 1.5625Z" fill="#215F66"/>
</svg>
