<svg width="40" height="40" viewBox="0 0 40 40" fill="none" xmlns="http://www.w3.org/2000/svg">
<path d="M31.25 18.75C33.6662 18.75 35.625 16.7912 35.625 14.375C35.625 11.9588 33.6662 10 31.25 10C28.8338 10 26.875 11.9588 26.875 14.375C26.875 16.7912 28.8338 18.75 31.25 18.75Z" fill="#FFBF66"/>
<path d="M36.9879 18.1626C36.4162 19.0308 35.6565 19.7591 34.7649 20.2936C33.8734 20.828 32.873 21.155 31.8379 21.2501C32.2731 22.4526 32.4972 23.7213 32.5004 25.0001V28.7501H35.0004C35.995 28.7501 36.9488 28.355 37.652 27.6517C38.3553 26.9485 38.7504 25.9947 38.7504 25.0001V22.5001C38.7471 20.8805 38.1152 19.3255 36.9879 18.1626Z" fill="#FFBF66"/>
<path d="M8.75 18.75C11.1662 18.75 13.125 16.7912 13.125 14.375C13.125 11.9588 11.1662 10 8.75 10C6.33375 10 4.375 11.9588 4.375 14.375C4.375 16.7912 6.33375 18.75 8.75 18.75Z" fill="#FFBF66"/>
<path d="M3.0125 18.1624C1.88519 19.3253 1.25331 20.8803 1.25 22.4999V24.9999C1.25 25.9945 1.64509 26.9483 2.34835 27.6516C3.05161 28.3548 4.00544 28.7499 5 28.7499H7.5V24.9999C7.50317 23.7211 7.7273 22.4524 8.1625 21.2499C7.12739 21.1548 6.12698 20.8279 5.23545 20.2934C4.34393 19.7589 3.58416 19.0306 3.0125 18.1624ZM26.675 18.1499C25.8536 19.119 24.831 19.8977 23.6783 20.4317C22.5256 20.9658 21.2704 21.2424 20 21.2424C18.7296 21.2424 17.4744 20.9658 16.3217 20.4317C15.169 19.8977 14.1464 19.119 13.325 18.1499C12.2905 18.9674 11.4541 20.0081 10.8783 21.1943C10.3026 22.3804 10.0023 23.6814 10 24.9999V29.9999C10 30.9945 10.3951 31.9483 11.0983 32.6516C11.8016 33.3548 12.7554 33.7499 13.75 33.7499H26.25C27.2446 33.7499 28.1984 33.3548 28.9017 32.6516C29.6049 31.9483 30 30.9945 30 29.9999V24.9999C29.9977 23.6814 29.6974 22.3804 29.1217 21.1943C28.5459 20.0081 27.7095 18.9674 26.675 18.1499Z" fill="#FFBF66"/>
<path d="M20 18.75C23.4518 18.75 26.25 15.9518 26.25 12.5C26.25 9.04822 23.4518 6.25 20 6.25C16.5482 6.25 13.75 9.04822 13.75 12.5C13.75 15.9518 16.5482 18.75 20 18.75Z" fill="#FFBF66"/>
</svg>
