<svg width="40" height="40" viewBox="0 0 40 40" fill="none" xmlns="http://www.w3.org/2000/svg">
<path d="M16.6667 21.6667H6.66667C5.66667 21.6667 5 22.3333 5 23.3333V33.3333C5 34.3333 5.66667 35 6.66667 35H16.6667C17.6667 35 18.3333 34.3333 18.3333 33.3333V23.3333C18.3333 22.3333 17.6667 21.6667 16.6667 21.6667ZM16.6667 5H6.66667C5.66667 5 5 5.66667 5 6.66667V16.6667C5 17.6667 5.66667 18.3333 6.66667 18.3333H16.6667C17.6667 18.3333 18.3333 17.6667 18.3333 16.6667V6.66667C18.3333 5.66667 17.6667 5 16.6667 5ZM33.3333 26.6667H30V23.3333C30 22.3333 29.3333 21.6667 28.3333 21.6667C27.3333 21.6667 26.6667 22.3333 26.6667 23.3333V26.6667H23.3333C22.3333 26.6667 21.6667 27.3333 21.6667 28.3333C21.6667 29.3333 22.3333 30 23.3333 30H26.6667V33.3333C26.6667 34.3333 27.3333 35 28.3333 35C29.3333 35 30 34.3333 30 33.3333V30H33.3333C34.3333 30 35 29.3333 35 28.3333C35 27.3333 34.3333 26.6667 33.3333 26.6667ZM33.3333 5H23.3333C22.3333 5 21.6667 5.66667 21.6667 6.66667V16.6667C21.6667 17.6667 22.3333 18.3333 23.3333 18.3333H33.3333C34.3333 18.3333 35 17.6667 35 16.6667V6.66667C35 5.66667 34.3333 5 33.3333 5Z" fill="#FFBF66"/>
</svg>
