<svg width="30" height="30" viewBox="0 0 30 30" fill="none" xmlns="http://www.w3.org/2000/svg">
<path d="M25.3032 15.9281C24.7876 15.9281 24.3657 16.35 24.3657 16.8656V21.5625C24.3657 23.1094 23.1001 24.375 21.5532 24.375H8.42822C6.88135 24.375 5.61572 23.1094 5.61572 21.5625V8.4375C5.61572 6.89062 6.88135 5.625 8.42822 5.625H14.9907C15.5063 5.625 15.9282 5.20312 15.9282 4.6875C15.9282 4.17188 15.5063 3.75 14.9907 3.75H8.42822C5.84072 3.75 3.74072 5.85 3.74072 8.4375V21.5625C3.74072 24.15 5.84072 26.25 8.42822 26.25H21.5532C24.1407 26.25 26.2407 24.15 26.2407 21.5625V16.8656C26.2407 16.35 25.8188 15.9281 25.3032 15.9281Z" fill="#FFBF66"/>
<path d="M11.7188 14.0625V16.2281C11.7188 17.3625 12.6375 18.2812 13.7719 18.2812H15.9375C16.4906 18.2812 17.0062 18.0656 17.3906 17.6813L25.6406 9.43125C26.4375 8.625 26.4375 7.32188 25.6406 6.525L23.475 4.35938C22.6688 3.5625 21.3656 3.5625 20.5688 4.35938L12.3188 12.6094C11.9344 12.9937 11.7188 13.5188 11.7188 14.0625ZM13.5938 14.0625C13.5938 14.0156 13.6125 13.9688 13.65 13.9312L21.9 5.68125C21.9 5.68125 21.9844 5.625 22.0312 5.625C22.0781 5.625 22.125 5.64375 22.1625 5.68125L24.3281 7.84687C24.4031 7.92187 24.4031 8.03437 24.3281 8.10937L16.0781 16.3594C16.0781 16.3594 15.9938 16.4156 15.9469 16.4156H13.7812C13.6781 16.4156 13.6031 16.3313 13.6031 16.2375V14.0719L13.5938 14.0625Z" fill="#FFBF66"/>
</svg>
