<svg width="40" height="40" viewBox="0 0 40 40" fill="none" xmlns="http://www.w3.org/2000/svg">
<path d="M31.6667 37.9168H8.33333C5.8 37.9168 3.75 35.8668 3.75 33.3335V6.66683C3.75 4.1335 5.8 2.0835 8.33333 2.0835H31.6667C34.2 2.0835 36.25 4.1335 36.25 6.66683V33.3335C36.25 35.8668 34.2 37.9168 31.6667 37.9168ZM8.33333 4.5835C7.18333 4.5835 6.25 5.51683 6.25 6.66683V33.3335C6.25 34.4835 7.18333 35.4168 8.33333 35.4168H31.6667C32.8167 35.4168 33.75 34.4835 33.75 33.3335V6.66683C33.75 5.51683 32.8167 4.5835 31.6667 4.5835H8.33333ZM21.25 23.3335V21.5168C21.25 20.4335 21.9167 19.4168 23.0167 18.8002C25.3667 17.5002 26.6167 14.8502 26.15 12.2002C25.7 9.6835 23.6333 7.61683 21.1167 7.16683C19.2667 6.8335 17.4 7.3335 15.9833 8.5335C14.5667 9.71683 13.75 11.4668 13.75 13.3168C13.75 14.0002 14.3167 14.5668 15 14.5668C15.6833 14.5668 16.25 14.0002 16.25 13.3168C16.25 12.2002 16.7333 11.1668 17.5833 10.4502C18.45 9.7335 19.55 9.4335 20.6833 9.6335C22.1833 9.90016 23.4167 11.1335 23.6833 12.6335C23.9667 14.2668 23.2333 15.8168 21.8 16.6168C19.8833 17.6668 18.75 19.5002 18.75 21.5168V23.3335C18.75 24.0168 19.3167 24.5835 20 24.5835C20.6833 24.5835 21.25 24.0168 21.25 23.3335ZM27.9167 30.0002C27.9167 29.3168 27.35 28.7502 26.6667 28.7502H13.3333C12.65 28.7502 12.0833 29.3168 12.0833 30.0002C12.0833 30.6835 12.65 31.2502 13.3333 31.2502H26.6667C27.35 31.2502 27.9167 30.6835 27.9167 30.0002Z" fill="#FFBF66"/>
</svg>
