<svg width="40" height="40" viewBox="0 0 40 40" fill="none" xmlns="http://www.w3.org/2000/svg">
<path d="M19.9999 38.824C30.3962 38.824 38.824 30.3962 38.824 19.9999C38.824 9.60363 30.3962 1.17578 19.9999 1.17578C9.60363 1.17578 1.17578 9.60363 1.17578 19.9999C1.17578 30.3962 9.60363 38.824 19.9999 38.824Z" fill="#FFBF66"/>
<path d="M5.24591 29.5861C4.89147 29.5861 4.54652 29.4028 4.35551 29.0742C4.24522 28.8852 4.13837 28.6942 4.03526 28.5006C3.76785 27.9989 3.95771 27.3756 4.45949 27.1079C4.96156 26.8408 5.58483 27.0303 5.85224 27.5321C5.94329 27.7027 6.0375 27.8713 6.13458 28.0385C6.42066 28.5296 6.25435 29.1598 5.76291 29.4459C5.60006 29.5407 5.42198 29.5861 5.24591 29.5861Z" fill="#FFC97F"/>
<path d="M11.7955 35.9839C11.6275 35.9839 11.4572 35.9425 11.2998 35.8558C9.45869 34.8416 7.81835 33.5252 6.42502 31.9432C6.04905 31.5167 6.09041 30.8661 6.51694 30.4904C6.94318 30.1147 7.59403 30.1555 7.96972 30.5823C9.20593 31.9857 10.6604 33.1533 12.293 34.0526C12.7911 34.3269 12.9723 34.9528 12.698 35.4508C12.5104 35.7914 12.1586 35.9839 11.7955 35.9839Z" fill="#FFC97F"/>
<path d="M20.123 1.17871V38.821C30.4621 38.7541 38.8235 30.3547 38.8235 19.9998C38.8235 9.64493 30.4621 1.24563 20.123 1.17871Z" fill="#FFBF66"/>
<path d="M34.0571 20.0007C34.0571 27.7066 27.816 33.9889 20.1218 34.0476C20.0806 34.0537 20.0394 34.0537 19.9983 34.0537C12.2512 34.0537 5.94531 27.7477 5.94531 20.0007C5.94531 12.2478 12.2512 5.94189 19.9983 5.94189C20.0394 5.94189 20.0806 5.94189 20.1218 5.94778C27.816 6.00652 34.0571 12.289 34.0571 20.0007Z" fill="#F2EEE8"/>
<path d="M34.0564 20.0006C34.0564 27.7066 27.8153 33.9889 20.1211 34.0476V5.94775C27.8153 6.00649 34.0564 12.2889 34.0564 20.0006Z" fill="#E4D7C4"/>
<path d="M22.7706 15.3159V24.6748C22.7706 26.1101 21.694 27.1748 20.4412 27.3513C20.3352 27.3631 20.2293 27.3747 20.1235 27.3807C19.6411 27.3925 19.153 27.2747 18.6882 26.9983L10.806 22.316C9.04125 21.2689 9.04125 18.716 10.806 17.6688L18.6882 12.9924C19.1471 12.7159 19.6411 12.6042 20.1235 12.6101C20.2293 12.616 20.3352 12.6277 20.4412 12.6395C21.6999 12.8159 22.7706 13.8806 22.7706 15.3159Z" fill="#FFBF66"/>
<path d="M24.9766 14.2771V25.7182C24.9766 26.6359 25.7236 27.383 26.6413 27.383C27.5647 27.383 28.3118 26.6359 28.3118 25.7182V14.2771C28.3118 13.3594 27.5647 12.6123 26.6413 12.6123C26.1825 12.6123 25.7647 12.8006 25.4648 13.1006C25.1648 13.4006 24.9766 13.8182 24.9766 14.2771Z" fill="#FFBF66"/>
<path d="M22.7701 15.3161V24.6751C22.7701 26.1103 21.6936 27.1751 20.4407 27.3516C20.3347 27.3633 20.2289 27.375 20.123 27.381V12.6104C20.2289 12.6162 20.3347 12.628 20.4407 12.6398C21.6995 12.8161 22.7701 13.8809 22.7701 15.3161Z" fill="#FFBF66"/>
</svg>
