<svg width="40" height="40" viewBox="0 0 40 40" fill="none" xmlns="http://www.w3.org/2000/svg">
<path d="M31.25 37.5H6.25C5.25577 37.4989 4.30257 37.1035 3.59955 36.4005C2.89652 35.6974 2.50109 34.7442 2.5 33.75V15C2.50109 14.0058 2.89652 13.0526 3.59955 12.3495C4.30257 11.6465 5.25577 11.2511 6.25 11.25H31.25C32.2442 11.2511 33.1974 11.6465 33.9005 12.3495C34.6035 13.0526 34.9989 14.0058 35 15V20.625C35 20.9565 34.8683 21.2745 34.6339 21.5089C34.3995 21.7433 34.0815 21.875 33.75 21.875C33.4185 21.875 33.1005 21.7433 32.8661 21.5089C32.6317 21.2745 32.5 20.9565 32.5 20.625V15C32.4997 14.6686 32.3679 14.3508 32.1335 14.1165C31.8992 13.8821 31.5814 13.7503 31.25 13.75H6.25C5.91861 13.7504 5.60092 13.8823 5.36659 14.1166C5.13226 14.3509 5.00043 14.6686 5 15V33.75C5.00043 34.0814 5.13226 34.3991 5.36659 34.6334C5.60092 34.8677 5.91861 34.9996 6.25 35H31.25C31.5814 34.9997 31.8992 34.8679 32.1335 34.6335C32.3679 34.3992 32.4997 34.0814 32.5 33.75V28.125C32.5 27.7935 32.6317 27.4755 32.8661 27.2411C33.1005 27.0067 33.4185 26.875 33.75 26.875C34.0815 26.875 34.3995 27.0067 34.6339 27.2411C34.8683 27.4755 35 27.7935 35 28.125V33.75C34.9989 34.7442 34.6035 35.6974 33.9005 36.4005C33.1974 37.1035 32.2442 37.4989 31.25 37.5Z" fill="#FFBF66"/>
<path d="M30.1388 13.75C29.8992 13.7505 29.6645 13.682 29.4627 13.5526C29.261 13.4233 29.1007 13.2386 29.0011 13.0206L25.5136 5.40833L7.51987 13.6371C7.21843 13.7742 6.87491 13.7861 6.5647 13.6702C6.2545 13.5543 6.00293 13.32 5.86521 13.0189C5.72749 12.7177 5.71486 12.3742 5.8301 12.0638C5.94533 11.7533 6.17901 11.5013 6.47987 11.3629L24.4674 3.13782C25.0703 2.86206 25.7579 2.83632 26.3797 3.06624C27.0015 3.29615 27.5069 3.763 27.7853 4.36463L31.2741 11.9794C31.3614 12.1697 31.3995 12.3789 31.3849 12.5878C31.3702 12.7968 31.3033 12.9986 31.1903 13.1749C31.0773 13.3512 30.9217 13.4963 30.738 13.5968C30.5543 13.6972 30.3482 13.7499 30.1388 13.75ZM34.9997 29.375H29.9997C28.6736 29.375 27.4018 28.8482 26.4641 27.9105C25.5264 26.9729 24.9997 25.7011 24.9997 24.375C24.9997 23.0489 25.5264 21.7772 26.4641 20.8395C27.4018 19.9018 28.6736 19.375 29.9997 19.375H34.9997C35.6625 19.3758 36.2979 19.6394 36.7666 20.1081C37.2353 20.5768 37.4989 21.2122 37.4997 21.875V26.875C37.4989 27.5378 37.2353 28.1733 36.7666 28.6419C36.2979 29.1106 35.6625 29.3743 34.9997 29.375ZM29.9997 21.875C29.3366 21.875 28.7007 22.1384 28.2319 22.6072C27.7631 23.0761 27.4997 23.712 27.4997 24.375C27.4997 25.038 27.7631 25.6739 28.2319 26.1428C28.7007 26.6116 29.3366 26.875 29.9997 26.875H35.0009L34.9997 21.875H29.9997ZM13.1247 29.375H9.99966C9.66814 29.375 9.3502 29.2433 9.11578 29.0089C8.88136 28.7745 8.74966 28.4565 8.74966 28.125C8.74966 27.7935 8.88136 27.4755 9.11578 27.2411C9.3502 27.0067 9.66814 26.875 9.99966 26.875H13.1247C13.2904 26.875 13.4494 26.8092 13.5666 26.692C13.6838 26.5747 13.7497 26.4158 13.7497 26.25C13.7497 26.0842 13.6838 25.9253 13.5666 25.8081C13.4494 25.6909 13.2904 25.625 13.1247 25.625H11.8747C11.0459 25.625 10.251 25.2958 9.66495 24.7097C9.0789 24.1237 8.74966 23.3288 8.74966 22.5C8.74966 21.6712 9.0789 20.8764 9.66495 20.2903C10.251 19.7042 11.0459 19.375 11.8747 19.375H14.9997C15.3312 19.375 15.6491 19.5067 15.8835 19.7411C16.118 19.9755 16.2497 20.2935 16.2497 20.625C16.2497 20.9565 16.118 21.2745 15.8835 21.5089C15.6491 21.7433 15.3312 21.875 14.9997 21.875H11.8747C11.7089 21.875 11.5499 21.9409 11.4327 22.0581C11.3155 22.1753 11.2497 22.3342 11.2497 22.5C11.2497 22.6658 11.3155 22.8247 11.4327 22.942C11.5499 23.0592 11.7089 23.125 11.8747 23.125H13.1247C13.9535 23.125 14.7483 23.4542 15.3344 24.0403C15.9204 24.6264 16.2497 25.4212 16.2497 26.25C16.2497 27.0788 15.9204 27.8737 15.3344 28.4597C14.7483 29.0458 13.9535 29.375 13.1247 29.375Z" fill="#FFBF66"/>
<path d="M12.5 21.875C12.1685 21.875 11.8505 21.7433 11.6161 21.5089C11.3817 21.2745 11.25 20.9565 11.25 20.625V18.75C11.25 18.4185 11.3817 18.1005 11.6161 17.8661C11.8505 17.6317 12.1685 17.5 12.5 17.5C12.8315 17.5 13.1495 17.6317 13.3839 17.8661C13.6183 18.1005 13.75 18.4185 13.75 18.75V20.625C13.75 20.9565 13.6183 21.2745 13.3839 21.5089C13.1495 21.7433 12.8315 21.875 12.5 21.875ZM12.5 31.25C12.1685 31.25 11.8505 31.1183 11.6161 30.8839C11.3817 30.6495 11.25 30.3315 11.25 30V28.125C11.25 27.7935 11.3817 27.4755 11.6161 27.2411C11.8505 27.0067 12.1685 26.875 12.5 26.875C12.8315 26.875 13.1495 27.0067 13.3839 27.2411C13.6183 27.4755 13.75 27.7935 13.75 28.125V30C13.75 30.3315 13.6183 30.6495 13.3839 30.8839C13.1495 31.1183 12.8315 31.25 12.5 31.25Z" fill="#FFBF66"/>
</svg>
