<svg width="40" height="40" viewBox="0 0 40 40" fill="none" xmlns="http://www.w3.org/2000/svg">
<g clip-path="url(#clip0_326_2099)">
<path d="M33.1915 23.1251C33.0001 23.9141 32.7462 24.6876 32.4297 25.4337C32.4688 25.3399 32.5079 25.2462 32.5469 25.1524C32.2579 25.8243 31.9219 26.4766 31.543 27.1016C31.2735 27.543 31.3633 28.1602 31.7266 28.5235C32.0274 28.8243 32.3321 29.129 32.6329 29.4297C32.8126 29.6094 32.9883 29.7852 33.168 29.9649C33.2071 30.004 33.2501 30.043 33.2891 30.086C33.3243 30.1212 33.4415 30.2657 33.3165 30.1016C33.1837 29.9297 33.3126 30.1016 33.336 30.1446C33.3672 30.1993 33.3985 30.2579 33.4219 30.3165C33.3829 30.2227 33.3438 30.129 33.3047 30.0352C33.3516 30.1524 33.3868 30.2735 33.4063 30.3985C33.3907 30.293 33.379 30.1915 33.3633 30.086C33.3829 30.2305 33.3829 30.3712 33.3633 30.5157C33.379 30.4102 33.3907 30.3087 33.4063 30.2032C33.3868 30.3282 33.3516 30.4493 33.3047 30.5665C33.3438 30.4727 33.3829 30.379 33.4219 30.2852C33.3907 30.3516 33.3594 30.418 33.3204 30.4805C33.3008 30.5118 33.2735 30.543 33.2579 30.5743C33.3751 30.3438 33.4024 30.3985 33.3321 30.4688C33.3126 30.4883 33.2891 30.5118 33.2696 30.5313C33.2149 30.586 33.1602 30.6407 33.1055 30.6954C32.8751 30.9258 32.6407 31.1602 32.4102 31.3907C31.8633 31.9376 31.3126 32.4883 30.7657 33.0352C30.6915 33.1094 30.6172 33.1837 30.543 33.2579C30.5313 33.2696 30.5196 33.2813 30.5079 33.293C30.4962 33.3047 30.4766 33.3204 30.4649 33.3321C30.3204 33.4805 30.6993 33.1876 30.5235 33.2891C30.4415 33.336 30.3672 33.3829 30.2813 33.4219C30.3751 33.3829 30.4688 33.3438 30.5626 33.3047C30.4454 33.3516 30.3243 33.3868 30.1993 33.4063C30.3047 33.3907 30.4063 33.379 30.5118 33.3633C30.3672 33.3829 30.2266 33.3829 30.0821 33.3633C30.1876 33.379 30.2891 33.3907 30.3946 33.4063C30.2696 33.3868 30.1485 33.3516 30.0313 33.3047C30.1251 33.3438 30.2188 33.3829 30.3126 33.4219C30.211 33.3751 30.1251 33.3087 30.0235 33.2579C30.2618 33.3829 30.1797 33.3829 30.0821 33.2891C30.043 33.2501 30.0001 33.2071 29.961 33.168C29.7813 32.9883 29.6055 32.8126 29.4258 32.6329C29.1251 32.3321 28.8204 32.0274 28.5196 31.7266C28.1602 31.3672 27.543 31.2735 27.0977 31.543C26.4727 31.9258 25.8204 32.2618 25.1485 32.5469C25.2422 32.5079 25.336 32.4688 25.4297 32.4297C24.6797 32.7462 23.9102 33.0001 23.1212 33.1915C22.6251 33.3126 22.2618 33.8204 22.2618 34.3204C22.2618 34.7149 22.2618 35.1094 22.2618 35.504C22.2618 35.9141 22.2969 36.3399 22.2462 36.7462C22.2618 36.6407 22.2735 36.5391 22.2891 36.4337C22.2696 36.5547 22.2383 36.668 22.1954 36.7813C22.2344 36.6876 22.2735 36.5938 22.3126 36.5001C22.2774 36.5782 22.2422 36.6524 22.1954 36.7227C22.1251 36.836 22.0547 36.8282 22.2618 36.6485C22.2305 36.6758 22.2071 36.711 22.1758 36.7422C22.168 36.7501 22.086 36.8282 22.0821 36.8282C22.0704 36.8165 22.3633 36.6407 22.1797 36.7501C22.0977 36.7969 22.0196 36.8438 21.9337 36.879C22.0274 36.8399 22.1212 36.8008 22.2149 36.7618C22.1016 36.8047 21.9883 36.836 21.8672 36.8555C21.9727 36.8399 22.0743 36.8282 22.1797 36.8126C21.6876 36.8751 21.1641 36.8282 20.668 36.8282C19.9337 36.8282 19.2032 36.8282 18.4688 36.8282C18.254 36.8282 18.0313 36.8399 17.8204 36.8126C17.9258 36.8282 18.0274 36.8399 18.1329 36.8555C18.0118 36.836 17.8985 36.8047 17.7852 36.7618C17.879 36.8008 17.9727 36.8399 18.0665 36.879C17.9883 36.8438 17.9141 36.8087 17.8438 36.7618C17.7305 36.6915 17.7383 36.6212 17.918 36.8282C17.8907 36.7969 17.8555 36.7735 17.8243 36.7422C17.8165 36.7344 17.7383 36.6524 17.7383 36.6485C17.7501 36.6368 17.9258 36.9297 17.8165 36.7462C17.7696 36.6641 17.7227 36.586 17.6876 36.5001C17.7266 36.5938 17.7657 36.6876 17.8047 36.7813C17.7618 36.668 17.7305 36.5547 17.711 36.4337C17.7266 36.5391 17.7383 36.6407 17.754 36.7462C17.7032 36.3399 17.7383 35.9102 17.7383 35.504C17.7383 35.1094 17.7383 34.7149 17.7383 34.3204C17.7383 33.8204 17.3751 33.3126 16.879 33.1915C16.0899 33.0001 15.3165 32.7462 14.5704 32.4297C14.6641 32.4688 14.7579 32.5079 14.8516 32.5469C14.1797 32.2579 13.5274 31.9219 12.9024 31.543C12.461 31.2735 11.8438 31.3633 11.4805 31.7266C11.1797 32.0274 10.8751 32.3321 10.5743 32.6329C10.3946 32.8126 10.2188 32.9883 10.0391 33.168C10.0001 33.2071 9.96099 33.2501 9.91803 33.2891C9.88287 33.3243 9.73834 33.4415 9.9024 33.3165C10.0743 33.1837 9.9024 33.3126 9.85943 33.336C9.80474 33.3672 9.74615 33.3985 9.68756 33.4219C9.78131 33.3829 9.87506 33.3438 9.96881 33.3047C9.85162 33.3516 9.73053 33.3868 9.60553 33.4063C9.71099 33.3907 9.81256 33.379 9.91803 33.3633C9.77349 33.3829 9.63287 33.3829 9.48834 33.3633C9.59381 33.379 9.69537 33.3907 9.80084 33.4063C9.67584 33.3868 9.55475 33.3516 9.43756 33.3047C9.53131 33.3438 9.62506 33.3829 9.71881 33.4219C9.6524 33.3907 9.586 33.3594 9.52349 33.3204C9.49224 33.3008 9.46099 33.2735 9.42974 33.2579C9.66021 33.3751 9.60553 33.4024 9.53521 33.3321C9.51568 33.3126 9.49224 33.2891 9.47271 33.2696C9.41803 33.2149 9.36334 33.1602 9.30865 33.1055C9.07818 32.8751 8.84381 32.6407 8.61334 32.4102C8.06646 31.8633 7.51568 31.3126 6.96881 30.7657C6.89459 30.6915 6.82037 30.6172 6.74615 30.543C6.73443 30.5313 6.72271 30.5196 6.711 30.5079C6.69928 30.4962 6.68365 30.4766 6.67193 30.4649C6.5235 30.3204 6.81646 30.6993 6.7149 30.5235C6.66803 30.4415 6.62115 30.3672 6.58209 30.2813C6.62115 30.3751 6.66021 30.4688 6.69928 30.5626C6.6524 30.4454 6.61724 30.3243 6.59771 30.1993C6.61334 30.3047 6.62506 30.4063 6.64068 30.5118C6.62115 30.3672 6.62115 30.2266 6.64068 30.0821C6.62506 30.1876 6.61334 30.2891 6.59771 30.3946C6.61724 30.2696 6.6524 30.1485 6.69928 30.0313C6.66021 30.1251 6.62115 30.2188 6.58209 30.3126C6.62896 30.211 6.69537 30.1251 6.74615 30.0235C6.62115 30.2618 6.62115 30.1797 6.7149 30.0821C6.75396 30.043 6.79693 30.0001 6.836 29.961C7.01568 29.7813 7.19146 29.6055 7.37115 29.4258C7.67193 29.1251 7.97662 28.8204 8.2774 28.5196C8.63678 28.1602 8.73053 27.543 8.461 27.0977C8.07818 26.4727 7.74224 25.8204 7.45709 25.1485C7.49615 25.2422 7.53521 25.336 7.57428 25.4297C7.25787 24.6797 7.00396 23.9102 6.81256 23.1212C6.69146 22.6251 6.18365 22.2618 5.68365 22.2618C5.28912 22.2618 4.89459 22.2618 4.50006 22.2618C4.0899 22.2618 3.66412 22.2969 3.25787 22.2462C3.36334 22.2618 3.4649 22.2735 3.57037 22.2891C3.44928 22.2696 3.336 22.2383 3.22271 22.1954C3.31646 22.2344 3.41021 22.2735 3.50396 22.3126C3.42584 22.2774 3.35162 22.2422 3.28131 22.1954C3.16803 22.1251 3.17584 22.0547 3.35553 22.2618C3.32818 22.2305 3.29303 22.2071 3.26178 22.1758C3.25396 22.168 3.17584 22.086 3.17584 22.0821C3.18756 22.0704 3.36334 22.3633 3.25396 22.1797C3.20709 22.0977 3.16021 22.0196 3.12506 21.9337C3.16412 22.0274 3.20318 22.1212 3.24225 22.2149C3.19928 22.1016 3.16803 21.9883 3.1485 21.8672C3.16412 21.9727 3.17584 22.0743 3.19146 22.1797C3.12896 21.6876 3.17584 21.1641 3.17584 20.668C3.17584 19.9337 3.17584 19.2032 3.17584 18.4688C3.17584 18.254 3.16412 18.0313 3.19146 17.8204C3.17584 17.9258 3.16412 18.0274 3.1485 18.1329C3.16803 18.0118 3.19928 17.8985 3.24225 17.7852C3.20318 17.879 3.16412 17.9727 3.12506 18.0665C3.16021 17.9883 3.19537 17.9141 3.24225 17.8438C3.31256 17.7305 3.38287 17.7383 3.17584 17.918C3.20709 17.8907 3.23053 17.8555 3.26178 17.8243C3.26959 17.8165 3.35162 17.7383 3.35553 17.7383C3.36725 17.7501 3.07428 17.9258 3.25787 17.8165C3.3399 17.7696 3.41803 17.7227 3.50396 17.6876C3.41021 17.7266 3.31646 17.7657 3.22271 17.8047C3.336 17.7618 3.44928 17.7305 3.57037 17.711C3.4649 17.7266 3.36334 17.7383 3.25787 17.754C3.66412 17.7032 4.09381 17.7383 4.50006 17.7383C4.89459 17.7383 5.28912 17.7383 5.68365 17.7383C6.18365 17.7383 6.69146 17.3751 6.81256 16.879C7.00396 16.0899 7.25787 15.3165 7.57428 14.5704C7.53521 14.6641 7.49615 14.7579 7.45709 14.8516C7.74615 14.1797 8.08209 13.5274 8.461 12.9024C8.73053 12.461 8.64068 11.8438 8.2774 11.4805C7.97662 11.1797 7.67193 10.8751 7.37115 10.5743C7.19146 10.3946 7.01568 10.2188 6.836 10.0391C6.79693 10.0001 6.75396 9.96099 6.7149 9.91803C6.67974 9.88287 6.56256 9.73834 6.68756 9.9024C6.82037 10.0743 6.69146 9.9024 6.66803 9.85943C6.63678 9.80474 6.60553 9.74615 6.58209 9.68756C6.62115 9.78131 6.66021 9.87506 6.69928 9.96881C6.6524 9.85162 6.61724 9.73053 6.59771 9.60553C6.61334 9.71099 6.62506 9.81256 6.64068 9.91803C6.62115 9.77349 6.62115 9.63287 6.64068 9.48834C6.62506 9.59381 6.61334 9.69537 6.59771 9.80084C6.61724 9.67584 6.6524 9.55475 6.69928 9.43756C6.66021 9.53131 6.62115 9.62506 6.58209 9.71881C6.61334 9.6524 6.64459 9.586 6.68365 9.52349C6.70318 9.49224 6.73053 9.46099 6.74615 9.42974C6.62896 9.66021 6.60162 9.60553 6.67193 9.53521C6.69146 9.51568 6.7149 9.49224 6.73443 9.47271C6.78912 9.41803 6.84381 9.36334 6.8985 9.30865C7.12896 9.07818 7.36334 8.84381 7.59381 8.61334C8.14068 8.06646 8.69146 7.51568 9.23834 6.96881C9.31256 6.89459 9.38678 6.82037 9.46099 6.74615C9.47271 6.73443 9.48443 6.72271 9.49615 6.711C9.50787 6.69928 9.5274 6.68365 9.53912 6.67193C9.68365 6.5235 9.30474 6.81646 9.48053 6.7149C9.56256 6.66803 9.63678 6.62115 9.72271 6.58209C9.62896 6.62115 9.53521 6.66021 9.44146 6.69928C9.55865 6.6524 9.67974 6.61724 9.80474 6.59771C9.69928 6.61334 9.59771 6.62506 9.49224 6.64068C9.63678 6.62115 9.7774 6.62115 9.92193 6.64068C9.81646 6.62506 9.7149 6.61334 9.60943 6.59771C9.73443 6.61724 9.85553 6.6524 9.97271 6.69928C9.87896 6.66021 9.78521 6.62115 9.69146 6.58209C9.79303 6.62896 9.87896 6.69537 9.98053 6.74615C9.74224 6.62115 9.82428 6.62115 9.92193 6.7149C9.96099 6.75396 10.004 6.79693 10.043 6.836C10.2227 7.01568 10.3985 7.19146 10.5782 7.37115C10.879 7.67193 11.1837 7.97662 11.4844 8.2774C11.8438 8.63678 12.461 8.73053 12.9063 8.461C13.5313 8.07818 14.1837 7.74224 14.8555 7.45709C14.7618 7.49615 14.668 7.53521 14.5743 7.57428C15.3243 7.25787 16.0938 7.00396 16.8829 6.81256C17.379 6.69146 17.7422 6.18365 17.7422 5.68365C17.7422 5.28912 17.7422 4.89459 17.7422 4.50006C17.7422 4.0899 17.7071 3.66412 17.7579 3.25787C17.7422 3.36334 17.7305 3.4649 17.7149 3.57037C17.7344 3.44928 17.7657 3.336 17.8087 3.22271C17.7696 3.31646 17.7305 3.41021 17.6915 3.50396C17.7266 3.42584 17.7618 3.35162 17.8087 3.28131C17.879 3.16803 17.9493 3.17584 17.7422 3.35553C17.7735 3.32818 17.7969 3.29303 17.8282 3.26178C17.836 3.25396 17.918 3.17584 17.9219 3.17584C17.9337 3.18756 17.6407 3.36334 17.8243 3.25396C17.9063 3.20709 17.9844 3.16021 18.0704 3.12506C17.9766 3.16412 17.8829 3.20318 17.7891 3.24225C17.9024 3.19928 18.0157 3.16803 18.1368 3.1485C18.0313 3.16412 17.9297 3.17584 17.8243 3.19146C18.3165 3.12896 18.8399 3.17584 19.336 3.17584C20.0704 3.17584 20.8008 3.17584 21.5352 3.17584C21.7501 3.17584 21.9727 3.16412 22.1837 3.19146C22.0782 3.17584 21.9766 3.16412 21.8712 3.1485C21.9922 3.16803 22.1055 3.19928 22.2188 3.24225C22.1251 3.20318 22.0313 3.16412 21.9376 3.12506C22.0157 3.16021 22.0899 3.19537 22.1602 3.24225C22.2735 3.31256 22.2657 3.38287 22.086 3.17584C22.1133 3.20709 22.1485 3.23053 22.1797 3.26178C22.1876 3.26959 22.2657 3.35162 22.2657 3.35553C22.254 3.36725 22.0782 3.07428 22.1876 3.25787C22.2344 3.3399 22.2813 3.41803 22.3165 3.50396C22.2774 3.41021 22.2383 3.31646 22.1993 3.22271C22.2422 3.336 22.2735 3.44928 22.293 3.57037C22.2774 3.4649 22.2657 3.36334 22.2501 3.25787C22.3008 3.66412 22.2657 4.09381 22.2657 4.50006C22.2657 4.89459 22.2657 5.28912 22.2657 5.68365C22.2657 6.18365 22.629 6.69146 23.1251 6.81256C23.9141 7.00396 24.6876 7.25787 25.4337 7.57428C25.3399 7.53521 25.2462 7.49615 25.1524 7.45709C25.8243 7.74615 26.4766 8.08209 27.1016 8.461C27.543 8.73053 28.1602 8.64068 28.5235 8.2774C28.8243 7.97662 29.129 7.67193 29.4297 7.37115C29.6094 7.19146 29.7852 7.01568 29.9649 6.836C30.004 6.79693 30.043 6.75396 30.086 6.7149C30.1212 6.67974 30.2657 6.56256 30.1016 6.68756C29.9297 6.82037 30.1016 6.69146 30.1446 6.66803C30.1993 6.63678 30.2579 6.60553 30.3165 6.58209C30.2227 6.62115 30.129 6.66021 30.0352 6.69928C30.1524 6.6524 30.2735 6.61724 30.3985 6.59771C30.293 6.61334 30.1915 6.62506 30.086 6.64068C30.2305 6.62115 30.3712 6.62115 30.5157 6.64068C30.4102 6.62506 30.3087 6.61334 30.2032 6.59771C30.3282 6.61724 30.4493 6.6524 30.5665 6.69928C30.4727 6.66021 30.379 6.62115 30.2852 6.58209C30.3516 6.61334 30.418 6.64459 30.4805 6.68365C30.5118 6.70318 30.543 6.73053 30.5743 6.74615C30.3438 6.62896 30.3985 6.60162 30.4688 6.67193C30.4883 6.69146 30.5118 6.7149 30.5313 6.73443C30.586 6.78912 30.6407 6.84381 30.6954 6.8985C30.9258 7.12896 31.1602 7.36334 31.3907 7.59381C31.9376 8.14068 32.4883 8.69146 33.0352 9.23834C33.1094 9.31256 33.1837 9.38678 33.2579 9.46099C33.2696 9.47271 33.2813 9.48443 33.293 9.49615C33.3047 9.50787 33.3204 9.5274 33.3321 9.53912C33.4805 9.68365 33.1876 9.30474 33.2891 9.48053C33.336 9.56256 33.3829 9.63678 33.4219 9.72271C33.3829 9.62896 33.3438 9.53521 33.3047 9.44146C33.3516 9.55865 33.3868 9.67974 33.4063 9.80474C33.3907 9.69928 33.379 9.59771 33.3633 9.49224C33.3829 9.63678 33.3829 9.7774 33.3633 9.92193C33.379 9.81646 33.3907 9.7149 33.4063 9.60943C33.3868 9.73443 33.3516 9.85553 33.3047 9.97271C33.3438 9.87896 33.3829 9.78521 33.4219 9.69146C33.3751 9.79303 33.3087 9.87896 33.2579 9.98053C33.3829 9.74224 33.3829 9.82428 33.2891 9.92193C33.2501 9.96099 33.2071 10.004 33.168 10.043C32.9883 10.2227 32.8126 10.3985 32.6329 10.5782C32.3321 10.879 32.0274 11.1837 31.7266 11.4844C31.3672 11.8438 31.2735 12.461 31.543 12.9063C31.9258 13.5313 32.2618 14.1837 32.5469 14.8555C32.5079 14.7618 32.4688 14.668 32.4297 14.5743C32.7462 15.3243 33.0001 16.0938 33.1915 16.8829C33.3126 17.379 33.8204 17.7422 34.3204 17.7422C34.7149 17.7422 35.1094 17.7422 35.504 17.7422C35.9141 17.7422 36.3399 17.7071 36.7462 17.7579C36.6407 17.7422 36.5391 17.7305 36.4337 17.7149C36.5547 17.7344 36.668 17.7657 36.7813 17.8087C36.6876 17.7696 36.5938 17.7305 36.5001 17.6915C36.5782 17.7266 36.6524 17.7618 36.7227 17.8087C36.836 17.879 36.8282 17.9493 36.6485 17.7422C36.6758 17.7735 36.711 17.7969 36.7422 17.8282C36.7501 17.836 36.8282 17.918 36.8282 17.9219C36.8165 17.9337 36.6407 17.6407 36.7501 17.8243C36.7969 17.9063 36.8438 17.9844 36.879 18.0704C36.8399 17.9766 36.8008 17.8829 36.7618 17.7891C36.8047 17.9024 36.836 18.0157 36.8555 18.1368C36.8399 18.0313 36.8282 17.9297 36.8126 17.8243C36.8751 18.3165 36.8282 18.8399 36.8282 19.336C36.8282 20.0704 36.8282 20.8008 36.8282 21.5352C36.8282 21.7501 36.8399 21.9727 36.8126 22.1837C36.8282 22.0782 36.8399 21.9766 36.8555 21.8712C36.836 21.9922 36.8047 22.1055 36.7618 22.2188C36.8008 22.1251 36.8399 22.0313 36.879 21.9376C36.8438 22.0157 36.8087 22.0899 36.7618 22.1602C36.6915 22.2735 36.6212 22.2657 36.8282 22.086C36.7969 22.1133 36.7735 22.1485 36.7422 22.1797C36.7344 22.1876 36.6524 22.2657 36.6485 22.2657C36.6368 22.254 36.9297 22.0782 36.7462 22.1876C36.6641 22.2344 36.586 22.2813 36.5001 22.3165C36.5938 22.2774 36.6876 22.2383 36.7813 22.1993C36.668 22.2422 36.5547 22.2735 36.4337 22.293C36.5391 22.2774 36.6407 22.2657 36.7462 22.2501C36.3399 22.3008 35.9102 22.2657 35.504 22.2657C35.1094 22.2657 34.7149 22.2657 34.3204 22.2657C33.7071 22.2657 33.1212 22.8047 33.1485 23.4376C33.1758 24.0743 33.6641 24.6094 34.3204 24.6094C35.0547 24.6094 35.793 24.6212 36.5274 24.6094C37.668 24.5938 38.6212 23.8946 39.0235 22.8399C39.1758 22.4376 39.1758 22.0157 39.1758 21.5938C39.1758 20.6251 39.1758 19.6602 39.1758 18.6915C39.1758 18.4376 39.1915 18.1797 39.1719 17.9258C39.0899 16.7852 38.3321 15.7462 37.1876 15.4727C36.668 15.3477 36.1133 15.3907 35.5821 15.3907C35.1602 15.3907 34.7422 15.3907 34.3204 15.3907C34.6954 15.6758 35.0743 15.9649 35.4493 16.2501C35.0626 14.6563 34.4219 13.1094 33.5665 11.711C33.504 12.1837 33.4454 12.6563 33.3829 13.1329C33.9024 12.6133 34.4297 12.1016 34.9415 11.5743C35.7462 10.7462 35.9258 9.56646 35.4454 8.5274C35.2657 8.14068 34.9649 7.84381 34.668 7.54693C33.9922 6.87115 33.3204 6.19928 32.6446 5.5235C32.4727 5.35162 32.3047 5.17193 32.1251 5.00787C31.2618 4.2149 29.8868 4.00787 28.8868 4.68365C28.4532 4.97662 28.0977 5.37896 27.7305 5.75006C27.4415 6.03912 27.1524 6.32818 26.8633 6.61724C27.336 6.55474 27.8087 6.49615 28.2852 6.43365C26.8868 5.57818 25.3399 4.93756 23.7462 4.55084C24.0313 4.92584 24.3204 5.30475 24.6055 5.67975C24.6055 4.94537 24.6172 4.20709 24.6055 3.47271C24.5899 2.33209 23.8907 1.37896 22.836 0.97662C22.4376 0.82037 22.0157 0.82037 21.5938 0.82037C20.6251 0.82037 19.6602 0.82037 18.6915 0.82037C18.4376 0.82037 18.1797 0.804745 17.9258 0.824277C16.7852 0.906308 15.7462 1.66412 15.4727 2.80865C15.3477 3.32818 15.3907 3.88287 15.3907 4.41412C15.3907 4.836 15.3907 5.25396 15.3907 5.67584C15.6758 5.30084 15.9649 4.92193 16.2501 4.54693C14.6563 4.93365 13.1094 5.57428 11.711 6.42975C12.1837 6.49225 12.6563 6.55084 13.1329 6.61334C12.6133 6.09381 12.1016 5.56646 11.5743 5.05475C10.7462 4.25006 9.56646 4.07037 8.5274 4.55084C8.14068 4.73053 7.84381 5.03131 7.54693 5.32818C6.87115 6.00396 6.19928 6.67584 5.5235 7.35162C5.35162 7.5235 5.17193 7.69146 5.00787 7.87115C4.2149 8.73443 4.00787 10.1094 4.68365 11.1094C4.97662 11.543 5.37896 11.8985 5.75006 12.2657C6.03912 12.5547 6.32818 12.8438 6.61724 13.1329C6.55474 12.6602 6.49615 12.1876 6.43365 11.711C5.57818 13.1094 4.93756 14.6563 4.55084 16.2501C4.92584 15.9649 5.30475 15.6758 5.67975 15.3907C4.94537 15.3907 4.20709 15.379 3.47271 15.3907C2.33209 15.4063 1.37896 16.1055 0.97662 17.1602C0.82037 17.5626 0.82037 17.9844 0.82037 18.4063C0.82037 19.3751 0.82037 20.3399 0.82037 21.3087C0.82037 21.5626 0.804745 21.8204 0.824277 22.0743C0.906308 23.2149 1.66412 24.254 2.80865 24.5274C3.32818 24.6524 3.88287 24.6094 4.41412 24.6094C4.836 24.6094 5.25396 24.6094 5.67584 24.6094C5.30084 24.3243 4.92193 24.0352 4.54693 23.7501C4.93365 25.3438 5.57428 26.8907 6.42975 28.2891C6.49225 27.8165 6.55084 27.3438 6.61334 26.8672C6.09381 27.3868 5.56646 27.8985 5.05475 28.4258C4.25006 29.254 4.07037 30.4337 4.55084 31.4727C4.73053 31.8594 5.03131 32.1563 5.32818 32.4532C6.00396 33.129 6.67584 33.8008 7.35162 34.4766C7.5235 34.6485 7.69146 34.8282 7.87115 34.9922C8.73443 35.7852 10.1094 35.9922 11.1094 35.3165C11.543 35.0235 11.8985 34.6212 12.2657 34.2501C12.5547 33.961 12.8438 33.6719 13.1329 33.3829C12.6602 33.4454 12.1876 33.504 11.711 33.5665C13.1094 34.4219 14.6563 35.0626 16.2501 35.4493C15.9649 35.0743 15.6758 34.6954 15.3907 34.3204C15.3907 35.0547 15.379 35.793 15.3907 36.5274C15.4063 37.668 16.1055 38.6212 17.1602 39.0235C17.5626 39.1758 17.9844 39.1758 18.4063 39.1758C19.3751 39.1758 20.3399 39.1758 21.3087 39.1758C21.5626 39.1758 21.8204 39.1915 22.0743 39.1719C23.2149 39.0899 24.254 38.3321 24.5274 37.1876C24.6524 36.668 24.6094 36.1133 24.6094 35.5821C24.6094 35.1602 24.6094 34.7422 24.6094 34.3204C24.3243 34.6954 24.0352 35.0743 23.7501 35.4493C25.3438 35.0626 26.8907 34.4219 28.2891 33.5665C27.8165 33.504 27.3438 33.4454 26.8672 33.3829C27.3868 33.9024 27.8985 34.4297 28.4258 34.9415C29.254 35.7462 30.4337 35.9258 31.4727 35.4454C31.8594 35.2657 32.1563 34.9649 32.4532 34.668C33.129 33.9922 33.8008 33.3204 34.4766 32.6446C34.6485 32.4727 34.8282 32.3047 34.9922 32.1251C35.7852 31.2618 35.9922 29.8868 35.3165 28.8868C35.0235 28.4532 34.6212 28.0977 34.2501 27.7305C33.961 27.4415 33.6719 27.1524 33.3829 26.8633C33.4454 27.336 33.504 27.8087 33.5665 28.2852C34.4219 26.8868 35.0626 25.3399 35.4493 23.7462C35.5938 23.1524 35.2618 22.4493 34.629 22.3047C34.0313 22.1719 33.3477 22.4883 33.1915 23.1251Z" fill="#FFBF66"/>
<path d="M25.7426 20.0001C25.7426 20.3087 25.7231 20.6134 25.6801 20.922C25.6958 20.8165 25.7075 20.715 25.7231 20.6095C25.6411 21.2189 25.477 21.8126 25.2387 22.379C25.2778 22.2853 25.3168 22.1915 25.3559 22.0978C25.184 22.5001 24.977 22.8869 24.7309 23.2501C24.6684 23.3439 24.6059 23.4337 24.5395 23.5236C24.4887 23.5939 24.352 23.7423 24.5981 23.4494C24.5668 23.4884 24.5356 23.5275 24.5004 23.5704C24.3598 23.7423 24.2114 23.9064 24.0551 24.0626C23.9028 24.215 23.7465 24.3556 23.5825 24.4923C23.5551 24.5158 23.477 24.6056 23.4418 24.6056C23.4887 24.6056 23.7036 24.4103 23.5161 24.547C23.434 24.6095 23.352 24.6681 23.2661 24.7228C22.895 24.9728 22.5004 25.1837 22.0903 25.3595C22.184 25.3204 22.2778 25.2814 22.3715 25.2423C21.8051 25.4806 21.2114 25.6408 20.602 25.7267C20.7075 25.7111 20.809 25.6994 20.9145 25.6837C20.3012 25.7619 19.684 25.7619 19.0747 25.6837C19.1801 25.6994 19.2817 25.7111 19.3872 25.7267C18.7778 25.6447 18.184 25.4806 17.6176 25.2423C17.7114 25.2814 17.8051 25.3204 17.8989 25.3595C17.4965 25.1876 17.1098 24.9806 16.7465 24.7345C16.6528 24.672 16.5629 24.6095 16.4731 24.5431C16.4028 24.4923 16.2543 24.3556 16.5473 24.6017C16.5083 24.5704 16.4692 24.5392 16.4262 24.504C16.2543 24.3634 16.0903 24.215 15.934 24.0587C15.7817 23.9064 15.6411 23.7501 15.5043 23.5861C15.4809 23.5587 15.3911 23.4806 15.3911 23.4454C15.3911 23.4923 15.5864 23.7072 15.4497 23.5197C15.3872 23.4376 15.3286 23.3556 15.2739 23.2697C15.0239 22.8986 14.8129 22.504 14.6372 22.0939C14.6762 22.1876 14.7153 22.2814 14.7543 22.3751C14.5161 21.8087 14.3559 21.215 14.27 20.6056C14.2856 20.7111 14.2973 20.8126 14.3129 20.9181C14.2348 20.3048 14.2348 19.6876 14.3129 19.0783C14.2973 19.1837 14.2856 19.2853 14.27 19.3908C14.352 18.7814 14.5161 18.1876 14.7543 17.6212C14.7153 17.715 14.6762 17.8087 14.6372 17.9025C14.809 17.5001 15.0161 17.1134 15.2622 16.7501C15.3247 16.6564 15.3872 16.5665 15.4536 16.4767C15.5043 16.4064 15.6411 16.2579 15.395 16.5509C15.4262 16.5119 15.4575 16.4728 15.4926 16.4298C15.6333 16.2579 15.7817 16.0939 15.9379 15.9376C16.0903 15.7853 16.2465 15.6447 16.4106 15.5079C16.4379 15.4845 16.5161 15.3947 16.5512 15.3947C16.5043 15.3947 16.2895 15.59 16.477 15.4533C16.559 15.3908 16.6411 15.3322 16.727 15.2775C17.0981 15.0275 17.4926 14.8165 17.9028 14.6408C17.809 14.6798 17.7153 14.7189 17.6215 14.7579C18.1879 14.5197 18.7817 14.3595 19.3911 14.2736C19.2856 14.2892 19.184 14.3009 19.0786 14.3165C19.6918 14.2384 20.309 14.2384 20.9184 14.3165C20.8129 14.3009 20.7114 14.2892 20.6059 14.2736C21.2153 14.3556 21.809 14.5197 22.3754 14.7579C22.2817 14.7189 22.1879 14.6798 22.0942 14.6408C22.4965 14.8126 22.8833 15.0197 23.2465 15.2658C23.3403 15.3283 23.4301 15.3908 23.52 15.4572C23.5903 15.5079 23.7387 15.6447 23.4458 15.3986C23.4848 15.4298 23.5239 15.4611 23.5668 15.4962C23.7387 15.6369 23.9028 15.7853 24.059 15.9415C24.2114 16.0939 24.352 16.2501 24.4887 16.4142C24.5122 16.4415 24.602 16.5197 24.602 16.5548C24.602 16.5079 24.4067 16.2931 24.5434 16.4806C24.6059 16.5626 24.6645 16.6447 24.7192 16.7306C24.9692 17.1017 25.1801 17.4962 25.3559 17.9064C25.3168 17.8126 25.2778 17.7189 25.2387 17.6251C25.477 18.1915 25.6372 18.7853 25.7231 19.3947C25.7075 19.2892 25.6958 19.1876 25.6801 19.0822C25.7231 19.3869 25.7426 19.6915 25.7426 20.0001C25.7465 20.6134 26.2817 21.1994 26.9145 21.172C27.5473 21.1447 28.0903 20.6564 28.0864 20.0001C28.0786 18.3673 27.5864 16.7072 26.6293 15.3751C25.6372 13.9962 24.309 12.9767 22.7153 12.3829C19.6333 11.2423 15.9301 12.2345 13.8364 14.7736C12.727 16.1173 12.0708 17.715 11.934 19.4533C11.809 21.0744 12.2231 22.7619 13.059 24.1525C13.8793 25.5119 15.1215 26.6642 16.5708 27.3165C18.1879 28.0431 19.934 28.254 21.6762 27.9064C24.8403 27.2736 27.4731 24.5587 27.9614 21.3634C28.0317 20.9103 28.0825 20.4572 28.0825 20.0001C28.0864 19.3869 27.5434 18.8009 26.9106 18.8283C26.2778 18.8556 25.7465 19.3439 25.7426 20.0001Z" fill="#FFBF66"/>
</g>
<defs>
<clipPath id="clip0_326_2099">
<rect width="40" height="40" fill="white"/>
</clipPath>
</defs>
</svg>
