<svg width="40" height="40" viewBox="0 0 40 40" fill="none" xmlns="http://www.w3.org/2000/svg">
<path d="M29.0605 26.6733H27.1855V35.1108H29.0605V26.6733Z" fill="#FFBF66"/>
<path d="M28.123 26.6733H27.1855V35.1108H28.123V26.6733Z" fill="#FFBF66"/>
<path d="M20.5873 13.2134H17.6348V18.7246H20.5873V13.2134Z" fill="#FFBF66"/>
<path d="M19.111 13.2134H17.6348V18.7246H19.111V13.2134Z" fill="#FFBF66"/>
<path d="M25.9852 15.1267H12.1402C11.6151 15.1267 11.1895 14.7011 11.1895 14.176V4.26768C11.1895 3.74252 11.6151 3.31689 12.1402 3.31689H25.9852C26.5104 3.31689 26.936 3.74252 26.936 4.26768V14.176C26.936 14.701 26.5102 15.1267 25.9852 15.1267Z" fill="#FFBF66"/>
<path d="M14.3145 14.176V4.26768C14.3145 3.74268 14.7401 3.31689 15.2652 3.31689H12.1402C11.6151 3.31689 11.1895 3.74268 11.1895 4.26768V14.176C11.1895 14.7011 11.6151 15.1267 12.1402 15.1267H15.2652C14.7402 15.1267 14.3145 14.701 14.3145 14.176Z" fill="#FFBF66"/>
<path d="M27.8418 21.5983L30.2671 19.8374L37.7654 36.1693C37.8604 36.3763 37.7091 36.6121 37.4813 36.6121H34.9352C34.813 36.6121 34.7021 36.541 34.6512 36.4299L27.8418 21.5983Z" fill="#FFBF66"/>
<path d="M36.5263 36.4304L29.7168 21.5987L30.7359 20.8588L30.2671 19.8379L27.8418 21.5988L34.6513 36.4305C34.7023 36.5415 34.8132 36.6127 34.9354 36.6127H36.8104C36.6882 36.6126 36.5773 36.5413 36.5263 36.4304Z" fill="#FFBF66"/>
<path d="M12.0306 21.5983L9.60525 19.8374L2.10697 36.1693C2.01197 36.3763 2.16322 36.6121 2.39103 36.6121H4.93713C5.05931 36.6121 5.1701 36.541 5.22119 36.4299L12.0306 21.5983Z" fill="#FFBF66"/>
<path d="M3.98197 36.1693L11.0115 20.8583L9.60525 19.8374L2.10697 36.1693C2.01197 36.3763 2.16322 36.6121 2.39103 36.6121H4.26603C4.03822 36.6122 3.88697 36.3763 3.98197 36.1693Z" fill="#FFBF66"/>
<path d="M26.4116 11.9322V4.25631C26.4116 4.02068 26.2353 3.82959 26.018 3.82959H12.1084C11.8911 3.82959 11.7148 4.02068 11.7148 4.25631V11.9322C11.7148 12.1679 11.8911 12.359 12.1084 12.359H26.0178C26.2353 12.359 26.4116 12.1679 26.4116 11.9322Z" fill="#FFE5C1"/>
<path d="M25.1613 11.5777C24.9024 11.5777 24.6926 11.3679 24.6926 11.109V5.54834H21.6738C21.4149 5.54834 21.2051 5.3385 21.2051 5.07959C21.2051 4.82068 21.4149 4.61084 21.6738 4.61084H24.6926C25.2096 4.61084 25.6301 5.03131 25.6301 5.54834V11.109C25.6301 11.3679 25.4202 11.5777 25.1613 11.5777Z" fill="#FCEFDE"/>
<path d="M23.9016 19.0561H14.3225C14.0689 19.0561 13.8633 18.8505 13.8633 18.5969C13.8633 18.3433 14.0689 18.1377 14.3225 18.1377H23.9016C24.1552 18.1377 24.3608 18.3433 24.3608 18.5969C24.3609 18.8505 24.1553 19.0561 23.9016 19.0561Z" fill="#FFB651"/>
<path d="M19.0616 14.7799C19.5508 14.7799 19.9473 14.3833 19.9473 13.8941C19.9473 13.4049 19.5508 13.0083 19.0616 13.0083C18.5724 13.0083 18.1758 13.4049 18.1758 13.8941C18.1758 14.3833 18.5724 14.7799 19.0616 14.7799Z" fill="#FFC574"/>
<path d="M34.3923 29.6468H16.9645C16.3034 29.6468 15.7676 29.1109 15.7676 28.4499V26.4688C15.7676 25.8078 16.3035 25.272 16.9645 25.272H34.3923V29.6468Z" fill="#A56E21"/>
<path d="M34.4707 36.6831H21.7754C21.2037 36.6831 20.7402 36.2197 20.7402 35.6479C20.7402 35.0762 21.2037 34.6128 21.7754 34.6128H34.4707C35.0424 34.6128 35.5059 35.0762 35.5059 35.6479C35.5059 36.2197 35.0424 36.6831 34.4707 36.6831Z" fill="#E59423"/>
<path d="M38.125 22.1812H1.875C1.52984 22.1812 1.25 21.9013 1.25 21.5562V19.6812C1.25 19.336 1.52984 19.0562 1.875 19.0562H38.125C38.4702 19.0562 38.75 19.336 38.75 19.6812V21.5562C38.75 21.9015 38.4702 22.1812 38.125 22.1812Z" fill="#FFBF66"/>
<path d="M34.1738 29.6812H23.5488C22.5134 29.6812 21.6738 28.8416 21.6738 27.8062V9.68115C21.6738 8.64568 22.5134 7.80615 23.5488 7.80615H34.1738C35.2093 7.80615 36.0488 8.64568 36.0488 9.68115V27.8062C36.0488 28.8418 35.2093 29.6812 34.1738 29.6812Z" fill="#FFBF66"/>
<path d="M33.5483 28.8998H31.25C30.9911 28.8998 30.7812 28.69 30.7812 28.4311C30.7812 28.1722 30.9911 27.9623 31.25 27.9623H33.5483C33.9791 27.9623 34.3295 27.6119 34.3295 27.1811V21.8086C34.3295 21.5497 34.5394 21.3398 34.7983 21.3398C35.0572 21.3398 35.267 21.5497 35.267 21.8086V27.1811C35.267 28.1288 34.4961 28.8998 33.5483 28.8998Z" fill="#E59423"/>
<path d="M5.625 21.5562V19.6812C5.625 19.336 5.90484 19.0562 6.25 19.0562H1.875C1.52984 19.0562 1.25 19.336 1.25 19.6812V21.5562C1.25 21.9013 1.52984 22.1812 1.875 22.1812H6.25C5.90484 22.1812 5.625 21.9013 5.625 21.5562Z" fill="#FFBF66"/>
<path d="M16.9883 18.5969C16.9883 18.3432 17.1939 18.1377 17.4475 18.1377H14.3225C14.0689 18.1377 13.8633 18.3433 13.8633 18.5969C13.8633 18.8505 14.0689 19.0561 14.3225 19.0561H17.4475C17.1939 19.0561 16.9883 18.8507 16.9883 18.5969Z" fill="#FFBF66"/>
<path d="M12.1084 3.82959C11.8911 3.82959 11.7148 4.02068 11.7148 4.25631V11.9321C11.7148 12.1677 11.8911 12.3588 12.1084 12.3588H14.3148V4.26771C14.3148 4.10959 14.3541 3.96084 14.4223 3.82959H12.1084Z" fill="#FCC475"/>
<path d="M24.7988 27.8062V9.68115C24.7988 8.64568 25.6384 7.80615 26.6738 7.80615H23.5488C22.5134 7.80615 21.6738 8.64568 21.6738 9.68115V27.8062C21.6738 28.8416 22.5134 29.6812 23.5488 29.6812H26.6738C25.6382 29.6812 24.7988 28.8418 24.7988 27.8062Z" fill="#A56E21"/>
<path d="M26.6738 11.249C27.4505 11.249 28.0801 10.6194 28.0801 9.84277C28.0801 9.06612 27.4505 8.43652 26.6738 8.43652C25.8972 8.43652 25.2676 9.06612 25.2676 9.84277C25.2676 10.6194 25.8972 11.249 26.6738 11.249Z" fill="#A56E21"/>
<path d="M23.8652 35.6479C23.8652 35.0762 24.3287 34.6128 24.9004 34.6128H21.7754C21.2037 34.6128 20.7402 35.0762 20.7402 35.6479C20.7402 36.2197 21.2037 36.6831 21.7754 36.6831H24.9004C24.3287 36.6831 23.8652 36.2197 23.8652 35.6479Z" fill="#FFBF66"/>
</svg>
